<svg width="83" height="27" viewBox="0 0 83 27" fill="none" xmlns="http://www.w3.org/2000/svg">
<path d="M74.8408 6.29675C70.4203 6.29675 67.1622 8.59883 66.3405 12.3096L66.2808 12.5771L70.495 13.3359L70.5533 13.0999C71.0493 11.1788 72.5611 10.1211 74.8034 10.1211C76.9352 10.1211 78.1945 11.0443 78.5635 12.8654L73.5217 14.0605C70.0036 14.8896 66.4093 16.2879 66.4093 20.3781C66.4093 23.6781 68.9085 25.8951 72.6253 25.8951C75.2426 25.8951 77.3893 24.9554 78.7503 23.2359L78.9654 25.5634H82.9167V13.7617C82.9107 9.15904 79.8124 6.29675 74.8408 6.29675ZM78.6815 16.5075C78.6815 20.3572 75.8835 22.114 73.2931 22.114C71.7708 22.114 70.8954 21.388 70.8954 20.1286C70.8954 18.8245 71.723 18.1313 73.9444 17.5756L78.6815 16.4059V16.5075Z" fill="#9412EC"/>
<path d="M18.0417 16.2475C18.0607 14.8374 18.2108 13.4321 18.4898 12.0497L21.999 11.739C21.7845 12.8268 21.6779 13.9332 21.6808 15.042C21.6808 19.8224 24.1651 22.1305 27.604 22.1305C31.2999 22.1305 33.593 19.7223 33.593 16.0055C33.593 12.4964 31.9677 10.3288 29.325 10.3288C27.4457 10.3288 26.4582 11.4297 26.4582 13.2538C26.4697 14.5396 26.9062 15.7855 27.6996 16.7973L24.4519 17.7265C23.389 16.413 22.8146 14.7716 22.8266 13.082C22.8266 9.94482 25.057 6.85248 29.5162 6.85248C35.0257 6.85248 37.51 10.8098 37.51 16.0055C37.51 21.4433 33.72 25.6067 27.604 25.6067C21.4507 25.6008 18.0417 21.7167 18.0417 16.2475Z" fill="#9412EC"/>
<path d="M39.0054 0.815662L43.2958 0V25.6306H39.0054V0.815662Z" fill="#9412EC"/>
<path d="M0 21.0743C0 19.3727 0.957582 18.0253 2.65912 16.7495L5.14046 19.053C4.71471 19.4086 4.36065 19.8329 4.36065 20.4722C4.36065 21.5359 5.70515 22.1379 8.43747 22.1379C11.3087 22.1379 12.6906 21.5702 12.6906 20.4005C12.6906 17.7773 1.52377 18.0611 1.52377 11.9287C1.52377 8.59584 4.71471 6.40132 9.32335 6.40132C13.684 6.40132 16.2714 8.13871 16.2714 10.9024C16.2714 12.356 15.5618 13.8095 14.286 14.9807L11.1668 12.9938C11.5926 12.5696 11.9137 12.0736 11.9137 11.4342C11.9137 10.4781 11.0981 9.98067 9.18442 9.98067C7.09297 9.98067 5.88741 10.6559 5.88741 11.86C5.88741 15.1928 17.0542 14.661 17.0542 20.1914C17.0542 23.5945 13.6183 25.7188 8.12077 25.7188C2.97732 25.7188 0 24.0172 0 21.0743Z" fill="#9412EC"/>
<path d="M44.6717 7.47989H49.0682C50.2379 16.9452 52.791 22.7175 54.4925 22.7175C55.2723 22.7175 56.5481 21.1923 57.7178 19.2428C55.7683 17.3007 54.5986 14.9538 54.5986 12.2947C54.5986 8.92747 56.442 6.97794 59.5284 6.97794C62.4355 6.97794 64.2087 8.99768 64.2087 11.8689C64.2087 13.6422 63.4289 15.9457 62.2936 18.215C63.2381 18.7734 64.236 19.2363 65.2724 19.5968L63.7128 23.1074C62.571 22.6298 61.4678 22.0649 60.4128 21.4179C58.4976 24.183 56.2299 26.3088 54.4925 26.3088C49.7419 26.3029 46.2672 18.9305 44.6717 7.47989ZM59.4955 15.7037C60.0617 14.2502 60.4516 12.9027 60.4516 11.9466C60.4516 10.9905 60.0976 10.5633 59.4597 10.5633C58.7127 10.5633 58.3602 11.0951 58.3602 12.1587C58.3551 13.4306 58.7525 14.6715 59.4955 15.7037Z" fill="#9412EC"/>
</svg>
